<svg xmlns="http://www.w3.org/2000/svg" width="80" height="80" viewBox="0 0 80 80"><g transform="translate(-595 -908)"><circle cx="40" cy="40" r="40" transform="translate(595 908)" fill="#06f" opacity="0.1"/><path d="M16,8.917V12.25a1,1,0,0,1-1,1H11.667a1,1,0,0,1-1-1V8.917a1,1,0,0,1,1-1H15A1,1,0,0,1,16,8.917Zm9.667-1H22.333a1,1,0,0,0-1,1V12.25a1,1,0,0,0,1,1h3.333a1,1,0,0,0,1-1V8.917A1,1,0,0,0,25.667,7.917ZM15,15.917H11.667a1,1,0,0,0-1,1V20.25a1,1,0,0,0,1,1H15a1,1,0,0,0,1-1V16.917A1,1,0,0,0,15,15.917Zm10.667,0H22.333a1,1,0,0,0-1,1V20.25a1,1,0,0,0,1,1h3.333a1,1,0,0,0,1-1V16.917A1,1,0,0,0,25.667,15.917ZM15,23.917H11.667a1,1,0,0,0-1,1V28.25a1,1,0,0,0,1,1H15a1,1,0,0,0,1-1V24.917A1,1,0,0,0,15,23.917Zm10.667,0H22.333a1,1,0,0,0-1,1V28.25a1,1,0,0,0,1,1h3.333a1,1,0,0,0,1-1V24.917A1,1,0,0,0,25.667,23.917ZM37.333,41v1.667H0V41a1,1,0,0,1,1-1H2.667V2a2,2,0,0,1,2-2h28a2,2,0,0,1,2,2V40h1.667A1,1,0,0,1,37.333,41ZM32,40V2.667H5.333V40H16V32.917a1,1,0,0,1,1-1h3.333a1,1,0,0,1,1,1V40Z" transform="translate(616.333 926.667)" fill="#06f"/></g></svg>