<svg xmlns="http://www.w3.org/2000/svg" width="80" height="80" viewBox="0 0 80 80"><g transform="translate(-410 -908)"><circle cx="40" cy="40" r="40" transform="translate(410 908)" fill="#06f" opacity="0.1"/><path d="M45.333,21.333H18.667A2.667,2.667,0,0,0,16,24V40a2.667,2.667,0,0,0,2.667,2.667H45.333A2.667,2.667,0,0,0,48,40V24A2.667,2.667,0,0,0,45.333,21.333Zm0,18.667H18.667V24H45.333ZM30.947,37.266A8.01,8.01,0,0,0,40,29.333v-2a.667.667,0,0,0-.667-.667H38a.667.667,0,0,0-.667.667v2a5.339,5.339,0,0,1-5.865,5.307,5.494,5.494,0,0,1-4.8-5.544V27.333A.667.667,0,0,0,26,26.667H24.667a.667.667,0,0,0-.667.667v1.722A8.187,8.187,0,0,0,30.947,37.266ZM2.667,16h32v2.667h2.667V16a2.667,2.667,0,0,0-2.667-2.667h-8V8a8,8,0,1,0-16,0v5.333h-8A2.667,2.667,0,0,0,0,16V37.333A2.667,2.667,0,0,0,2.667,40H13.333V37.333H2.667ZM13.333,8A5.333,5.333,0,1,1,24,8v5.333H13.333Z" transform="translate(426 926.667)" fill="#06f"/></g></svg>