<svg xmlns="http://www.w3.org/2000/svg" width="55" height="35"><defs><style>.b{fill:#003087}.c{fill:#009cde}</style></defs><g transform="translate(-.442 -.371)"><rect width="55" height="35" rx="2" transform="translate(.442 .371)" fill="#fff"/><path class="b" d="M11.626 11.996a4.11 4.11 0 0 0-2.372-.625H5.477a.446.446 0 0 0-.5.448l-1.534 9.63a.313.313 0 0 0 .071.26.289.289 0 0 0 .236.118h1.794a.458.458 0 0 0 .519-.448l.425-2.6a.457.457 0 0 1 .165-.307.731.731 0 0 1 .354-.153 2.447 2.447 0 0 1 .4-.035q.188 0 .448.024c.173.016.283.024.33.024a4.333 4.333 0 0 0 3.187-1.145 4.267 4.267 0 0 0 1.156-3.175 2.275 2.275 0 0 0-.902-2.016zm-1.947 2.892a1.339 1.339 0 0 1-.614 1.086 3.112 3.112 0 0 1-1.416.26l-.779.024.4-2.526a.283.283 0 0 1 .307-.26h.449a2.631 2.631 0 0 1 1.369.271q.425.272.284 1.145z"/><path class="c" d="M51.479 11.371h-1.746a.282.282 0 0 0-.307.26l-1.534 9.819-.024.047a.333.333 0 0 0 .094.224.3.3 0 0 0 .236.106h1.557a.446.446 0 0 0 .5-.448l1.534-9.654v-.024c0-.22-.1-.33-.307-.33z"/><path class="b" d="M30.379 15.171a.334.334 0 0 0-.094-.224.28.28 0 0 0-.212-.106h-1.818a.5.5 0 0 0-.425.236l-2.5 3.682-1.038-3.54a.5.5 0 0 0-.519-.378h-1.77a.278.278 0 0 0-.212.106.332.332 0 0 0-.094.224q0 .047.46 1.392t.991 2.9q.532 1.558.555 1.652a21.943 21.943 0 0 0-1.935 2.832.271.271 0 0 0 .307.307h1.818a.5.5 0 0 0 .425-.236l6.019-8.686a.232.232 0 0 0 .047-.165z"/><path class="c" d="M47.301 14.841h-1.794q-.331 0-.4.779a2.473 2.473 0 0 0-2.242-.944 3.813 3.813 0 0 0-2.891 1.275 4.245 4.245 0 0 0-1.192 3 3.021 3.021 0 0 0 .814 2.219 2.926 2.926 0 0 0 2.184.826 3.733 3.733 0 0 0 1.392-.283 2.777 2.777 0 0 0 1.11-.755 2.042 2.042 0 0 1-.047.212 1.256 1.256 0 0 0-.047.283q0 .378.307.378h1.626a.474.474 0 0 0 .519-.448l.968-6.16a.317.317 0 0 0-.071-.26.29.29 0 0 0-.236-.122zm-3.08 4.645a2 2 0 0 1-1.452.59 1.605 1.605 0 0 1-1.109-.378 1.315 1.315 0 0 1-.425-1.038 2.026 2.026 0 0 1 .59-1.475 1.965 1.965 0 0 1 1.464-.6 1.592 1.592 0 0 1 1.1.389 1.368 1.368 0 0 1 .437 1.074 1.939 1.939 0 0 1-.605 1.438z"/><path class="b" d="M20.488 14.841h-1.793q-.331 0-.4.779a2.508 2.508 0 0 0-2.242-.944 3.814 3.814 0 0 0-2.891 1.275 4.245 4.245 0 0 0-1.192 3 3.022 3.022 0 0 0 .814 2.219 2.925 2.925 0 0 0 2.183.826 3.678 3.678 0 0 0 1.369-.283 2.982 2.982 0 0 0 1.133-.755 1.59 1.59 0 0 0-.094.5q0 .378.307.378h1.629a.475.475 0 0 0 .519-.448l.968-6.16a.317.317 0 0 0-.071-.26.29.29 0 0 0-.236-.118zm-3.08 4.661a2.046 2.046 0 0 1-1.475.578 1.561 1.561 0 0 1-1.1-.378 1.334 1.334 0 0 1-.413-1.038 2.025 2.025 0 0 1 .59-1.475 1.966 1.966 0 0 1 1.464-.6 1.59 1.59 0 0 1 1.1.389 1.366 1.366 0 0 1 .436 1.074 1.927 1.927 0 0 1-.6 1.451z"/><path class="c" d="M38.439 11.996a4.109 4.109 0 0 0-2.372-.625h-3.753a.459.459 0 0 0-.52.448l-1.534 9.63a.315.315 0 0 0 .071.26.289.289 0 0 0 .236.118h1.935a.376.376 0 0 0 .378-.307l.425-2.737a.459.459 0 0 1 .165-.307.731.731 0 0 1 .354-.153 2.447 2.447 0 0 1 .4-.035c.125 0 .275.008.448.024s.284.024.33.024a4.332 4.332 0 0 0 3.187-1.145 4.267 4.267 0 0 0 1.156-3.175 2.276 2.276 0 0 0-.906-2.02zm-2.419 3.887a2.782 2.782 0 0 1-1.557.354l-.756.024.4-2.526a.282.282 0 0 1 .307-.26h.424a5.678 5.678 0 0 1 .826.047 1.167 1.167 0 0 1 .59.295.9.9 0 0 1 .283.72 1.52 1.52 0 0 1-.517 1.346z"/></g></svg>